<svg id="Layer_1" data-name="Layer 1" xmlns="http://www.w3.org/2000/svg" viewBox="0 0 263.4 263.4"><defs><style>.cls-1{fill:#007bff;}.cls-2{fill:#0576db;}.cls-3{fill:#fff;}.cls-4,.cls-5,.cls-6{fill:none;stroke:#fff;stroke-miterlimit:10;}.cls-4{stroke-width:4.17px;}.cls-5{stroke-width:3.12px;}.cls-6{stroke-width:6.25px;}</style></defs><title>ac-pln</title><circle class="cls-1" cx="131.7" cy="131.7" r="131.7"/><path class="cls-2" d="M232.73,237.16l-26.5-25.22-6.35-3.45-4.46,5.83-1.9,7.09-22.93-13.24-30.47-15.4-38.69,22.34-21,9.21L63.91,235.88,78.55,257.1a131.76,131.76,0,0,0,154.18-19.94Z" transform="translate(-10.29 -10.03)"/><path class="cls-3" d="M141.73,60.85q16.83,98.67,58,175.07h20.08Q163,144,141.73,19.54,120.51,144,63.62,235.92H83.7Q124.91,159.51,141.73,60.85Z" transform="translate(-10.29 -10.03)"/><path class="cls-3" d="M99,104.83H95.7a2.23,2.23,0,0,1-2.23-2.23V89.5a2.22,2.22,0,0,1,2.23-2.22h35V95H103.41a2.23,2.23,0,0,0-2.23,2.23v5.38A2.22,2.22,0,0,1,99,104.83Z" transform="translate(-10.29 -10.03)"/><path class="cls-3" d="M184.51,104.83h3.26A2.23,2.23,0,0,0,190,102.6V89.5a2.22,2.22,0,0,0-2.22-2.22h-35V95h27.29a2.23,2.23,0,0,1,2.23,2.23v5.38A2.23,2.23,0,0,0,184.51,104.83Z" transform="translate(-10.29 -10.03)"/><path class="cls-3" d="M104,82.32h-3.25a2.22,2.22,0,0,1-2.23-2.22V67a2.23,2.23,0,0,1,2.23-2.23h35v7.71H108.46a2.23,2.23,0,0,0-2.23,2.23V80.1A2.22,2.22,0,0,1,104,82.32Z" transform="translate(-10.29 -10.03)"/><path class="cls-3" d="M179.46,82.32h3.26A2.22,2.22,0,0,0,185,80.1V67a2.23,2.23,0,0,0-2.23-2.23h-35v7.71H175a2.22,2.22,0,0,1,2.22,2.23V80.1A2.22,2.22,0,0,0,179.46,82.32Z" transform="translate(-10.29 -10.03)"/><path class="cls-4" d="M128.8,113.87,163.68,134Q157.8,115.37,153,95.75l-22.84,13.19Q129.49,111.42,128.8,113.87Z" transform="translate(-10.29 -10.03)"/><path class="cls-5" d="M135.09,84.1l16.5,9.53q-2.24-9.22-4.24-18.67l-11.73,6.78C135.44,82.53,135.27,83.32,135.09,84.1Z" transform="translate(-10.29 -10.03)"/><path class="cls-6" d="M108.86,172.74l92.44,53.37a513.52,513.52,0,0,1-37.63-88.94l-52.81,30.49C110.2,169.36,109.53,171.06,108.86,172.74Z" transform="translate(-10.29 -10.03)"/><path class="cls-4" d="M154.66,113.87,119.79,134q5.88-18.63,10.68-38.25l22.85,13.19Q154,111.42,154.66,113.87Z" transform="translate(-10.29 -10.03)"/><path class="cls-5" d="M148.38,84.1l-16.5,9.53q2.24-9.22,4.23-18.67l11.74,6.78C148,82.53,148.2,83.32,148.38,84.1Z" transform="translate(-10.29 -10.03)"/><path class="cls-6" d="M174.6,172.74,82.16,226.11a513.54,513.54,0,0,0,37.64-88.94l52.81,30.49C173.26,169.36,173.93,171.06,174.6,172.74Z" transform="translate(-10.29 -10.03)"/></svg>