<svg id="Layer_1" data-name="Layer 1" xmlns="http://www.w3.org/2000/svg" viewBox="0 0 263.4 263.4"><defs><style>.cls-1{fill:#007bff;}.cls-2{fill:#0576db;}.cls-3{fill:#fff;}</style></defs><title>battery</title><circle class="cls-1" cx="131.7" cy="131.7" r="131.7"/><path class="cls-2" d="M270.55,169.2l-32.63-40.42-5.86,5.8-16.45,18.07L200.77,182l-67.42,1.3H62.71L48.18,182l52.34,84.86a131.63,131.63,0,0,0,22.61,5.27L138,273.37c1.24,0,2.5.06,3.75.06A131.74,131.74,0,0,0,270.55,169.2Z" transform="translate(-10.03 -10.03)"/><path class="cls-3" d="M231.53,125.77h-12V114.33c0-9.94-7.55-18.06-16.78-18.06H59.93c-9.22,0-16.77,8.12-16.77,18.06v54.81c0,9.93,7.55,18.06,16.77,18.06H202.79c9.23,0,16.78-8.13,16.78-18.06V157.69h12c4.83,0,8.78-4.25,8.78-9.45v-13C240.31,130,236.36,125.77,231.53,125.77ZM89.7,166.17a10.93,10.93,0,0,1-10.91,10.9h-13a10.93,10.93,0,0,1-10.91-10.9V117.3a10.94,10.94,0,0,1,10.91-10.91h13A10.94,10.94,0,0,1,89.7,117.3Zm37.47,0a10.93,10.93,0,0,1-10.9,10.9h-13a10.93,10.93,0,0,1-10.9-10.9V117.3a10.93,10.93,0,0,1,10.9-10.91h13a10.94,10.94,0,0,1,10.9,10.91Zm37.48,0a10.93,10.93,0,0,1-10.91,10.9h-13a10.93,10.93,0,0,1-10.91-10.9V117.3a10.94,10.94,0,0,1,10.91-10.91h13a10.94,10.94,0,0,1,10.91,10.91Z" transform="translate(-10.03 -10.03)"/></svg>