<?xml version="1.0" encoding="UTF-8" standalone="no"?>
<!-- Created with Inkscape (http://www.inkscape.org/) -->

<svg
   xmlns:dc="http://purl.org/dc/elements/1.1/"
   xmlns:cc="http://creativecommons.org/ns#"
   xmlns:rdf="http://www.w3.org/1999/02/22-rdf-syntax-ns#"
   xmlns:svg="http://www.w3.org/2000/svg"
   xmlns="http://www.w3.org/2000/svg"
   xmlns:sodipodi="http://sodipodi.sourceforge.net/DTD/sodipodi-0.dtd"
   xmlns:inkscape="http://www.inkscape.org/namespaces/inkscape"
   version="1.1"
   id="svg2"
   width="500"
   height="500"
   viewBox="0 0 500 500"
   sodipodi:docname="electric-tower.svg"
   inkscape:version="0.92.4 (5da689c313, 2019-01-14)"
   inkscape:export-filename="/media/dev/DATA/project/git-linux/spasi/src/assets/img/electric-tower.png"
   inkscape:export-xdpi="96"
   inkscape:export-ydpi="96">
  <metadata
     id="metadata8">
    <rdf:RDF>
      <cc:Work
         rdf:about="">
        <dc:format>image/svg+xml</dc:format>
        <dc:type
           rdf:resource="http://purl.org/dc/dcmitype/StillImage" />
        <dc:title></dc:title>
      </cc:Work>
    </rdf:RDF>
  </metadata>
  <defs
     id="defs6" />
  <sodipodi:namedview
     pagecolor="#ffffff"
     bordercolor="#666666"
     borderopacity="1"
     objecttolerance="10"
     gridtolerance="10"
     guidetolerance="10"
     inkscape:pageopacity="0"
     inkscape:pageshadow="2"
     inkscape:window-width="1862"
     inkscape:window-height="1016"
     id="namedview4"
     showgrid="false"
     inkscape:zoom="1.0325"
     inkscape:cx="365.63979"
     inkscape:cy="165.16102"
     inkscape:window-x="58"
     inkscape:window-y="27"
     inkscape:window-maximized="1"
     inkscape:current-layer="svg2" />
  <g
     id="g835"
     transform="matrix(0.83263505,0,0,0.83263505,33.316842,380.5799)">
    <path
       style="fill:none;stroke:#000000;stroke-width:9.10000038;stroke-linecap:butt;stroke-linejoin:miter;stroke-miterlimit:4;stroke-dasharray:none;stroke-opacity:1"
       d="M 375.20065,49.84189 C 317.60578,-52.81575 268.42943,-183.14769 275.48661,-406.54161 h -45.96419"
       id="path4522"
       inkscape:connector-curvature="0"
       sodipodi:nodetypes="ccc" />
    <path
       sodipodi:nodetypes="cc"
       inkscape:connector-curvature="0"
       id="path4520"
       d="m 134.23044,49.84189 c 57.59487,-102.65764 106.77122,-232.98958 99.71404,-456.3835"
       style="fill:none;stroke:#000000;stroke-width:9.10000038;stroke-linecap:butt;stroke-linejoin:miter;stroke-miterlimit:4;stroke-dasharray:none;stroke-opacity:1" />
    <path
       inkscape:connector-curvature="0"
       id="path4540"
       d="m 78.919954,98.52999 c 0,-0.11536 0.154481,-0.52883 0.343288,-0.91887 0.764208,-1.57863 1.348901,-3.20122 1.41217,-3.91897 0.03682,-0.41774 0.27192,-0.894 0.522437,-1.05838 0.250513,-0.16437 0.417946,-0.46578 0.372073,-0.66981 -0.152183,-0.67684 0.504618,-2.61707 0.885918,-2.61707 0.206267,0 0.301963,-0.22972 0.212659,-0.51049 -0.150548,-0.47329 0.158013,-1.45616 1.44233,-4.59432 0.275773,-0.67381 0.812792,-2.18996 1.193383,-3.36917 0.380586,-1.1792 0.830884,-2.14401 1.000665,-2.14401 0.169776,0 0.308686,-0.43695 0.308686,-0.97095 0,-0.53404 0.259661,-1.19974 0.57702,-1.47936 0.317364,-0.27961 0.577024,-0.85988 0.577024,-1.28952 0,-0.42963 0.274578,-1.22602 0.610176,-1.76975 0.335598,-0.54377 0.510612,-1.15968 0.388914,-1.36872 -0.12169,-0.20904 0.0365,-0.60718 0.351524,-0.88473 0.315034,-0.27756 0.572784,-0.9191 0.572784,-1.42563 0,-0.50651 0.271697,-1.16031 0.603766,-1.4529 0.332072,-0.29256 0.520588,-0.86962 0.418925,-1.28233 -0.101662,-0.41271 0.07044,-1.0214 0.382463,-1.35265 0.312017,-0.33124 0.47207,-0.76585 0.355677,-0.96578 -0.116394,-0.19994 0.132229,-0.82758 0.552495,-1.39479 0.420264,-0.56721 0.764119,-1.42891 0.764119,-1.9149 0,-0.48599 0.247293,-1.14617 0.549545,-1.46703 0.474529,-0.50377 22.655625,-0.5834 162.498295,-0.5834 h 161.94877 l 1.61571,4.39012 c 0.88864,2.41459 3.77286,10.17899 6.40935,17.25423 2.63648,7.07526 5.20378,14.01269 5.70514,15.41653 l 0.91153,2.55238 H 255.66336 c -97.20886,0 -176.743406,-0.0942 -176.743406,-0.20973 z"
       style="fill:#000000;fill-opacity:1;stroke:none;stroke-width:3.60684037;stroke-miterlimit:4;stroke-dasharray:none;stroke-opacity:1" />
    <path
       inkscape:connector-curvature="0"
       id="path4538"
       d="m 94.259647,58.54219 c 0,-1.03839 4.254011,-12.93554 4.693463,-13.12619 0.174497,-0.0757 0.317256,-0.56674 0.317256,-1.09121 0,-0.52449 0.260174,-1.06055 0.578162,-1.19125 0.317992,-0.13072 0.583672,-0.66152 0.590412,-1.17957 0.007,-0.51805 0.26907,-1.30571 0.58293,-1.75035 0.56491,-0.80023 2.13176,-0.8086 154.69437,-0.82574 l 154.12367,-0.0173 0.58492,1.65148 c 0.32171,0.90832 1.97317,5.41378 3.66992,10.01212 l 3.08498,8.36063 H 255.7197 94.259647 Z"
       style="fill:#000000;fill-opacity:1;stroke:none;stroke-width:3.6301682;stroke-miterlimit:4;stroke-dasharray:none;stroke-opacity:1" />
    <path
       inkscape:connector-curvature="0"
       id="path4526"
       d="M 78.476868,98.836 101.53574,39.58285 h 308.22697 l 23.32204,59.20944 z"
       style="fill:none;stroke:#000000;stroke-width:1px;stroke-linecap:butt;stroke-linejoin:miter;stroke-opacity:1" />
    <path
       inkscape:connector-curvature="0"
       id="path4528"
       d="M 93.762712,59.60585 H 417.50461"
       style="fill:none;stroke:#000000;stroke-width:1px;stroke-linecap:butt;stroke-linejoin:miter;stroke-opacity:1" />
    <path
       inkscape:connector-curvature="0"
       id="path4542"
       d="m 277.15254,-351.64839 90.0339,-2.71186 -92.74576,-37.9661"
       style="fill:none;stroke:#000000;stroke-width:9.89999962;stroke-linecap:butt;stroke-linejoin:miter;stroke-miterlimit:4;stroke-dasharray:none;stroke-opacity:1" />
    <path
       style="fill:none;stroke:#000000;stroke-width:9.89999962;stroke-linecap:butt;stroke-linejoin:miter;stroke-miterlimit:4;stroke-dasharray:none;stroke-opacity:1"
       d="m 232.47458,-351.64839 -90.0339,-2.71186 92.74576,-37.9661"
       id="path4544"
       inkscape:connector-curvature="0" />
    <path
       inkscape:connector-curvature="0"
       id="path4546"
       d="m 277.69492,-300.12296 128,51.52542 -124.20339,0.54237"
       style="fill:none;stroke:#000000;stroke-width:9.89999962;stroke-linecap:butt;stroke-linejoin:miter;stroke-miterlimit:4;stroke-dasharray:none;stroke-opacity:1" />
    <path
       style="fill:none;stroke:#000000;stroke-width:9.89999962;stroke-linecap:butt;stroke-linejoin:miter;stroke-miterlimit:4;stroke-dasharray:none;stroke-opacity:1"
       d="m 231.69492,-300.12296 -128,51.52542 124.20339,0.54237"
       id="path4548"
       inkscape:connector-curvature="0" />
    <path
       inkscape:connector-curvature="0"
       id="path4550"
       d="m 233.94448,-406.54161 43.20806,54.89322 -43.97509,55.94277 49.85702,61.36249 -68.26577,70.95038 99.71405,74.78553 -169.51387,118.12278"
       style="fill:none;stroke:#000000;stroke-width:5.19999981;stroke-linecap:butt;stroke-linejoin:miter;stroke-miterlimit:4;stroke-dasharray:none;stroke-opacity:1" />
    <path
       style="fill:none;stroke:#000000;stroke-width:5.15945673;stroke-linecap:butt;stroke-linejoin:miter;stroke-miterlimit:4;stroke-dasharray:none;stroke-opacity:1"
       d="m 275.08409,-406.53349 -42.45939,54.99347 43.21312,56.04493 -48.99313,61.47456 67.08291,71.07996 -97.98627,74.92211 166.57664,118.3385"
       id="path4552"
       inkscape:connector-curvature="0" />
  </g>
  <rect
     style="opacity:0.95999995;fill:none;fill-opacity:1;stroke:none;stroke-width:66.14173126;stroke-linecap:round;stroke-miterlimit:4;stroke-dasharray:none;stroke-opacity:1"
     id="rect837"
     width="500"
     height="500"
     x="0"
     y="0" />
</svg>
