<svg id="Layer_1" data-name="Layer 1" xmlns="http://www.w3.org/2000/svg" viewBox="0 0 227.76 48.04"><defs><style>.cls-1{fill:#015097;}.cls-2,.cls-3{fill:gray;}.cls-2{stroke:gray;stroke-miterlimit:10;stroke-width:0.25px;}</style></defs><title>logo-tr</title><polygon class="cls-1" points="13.09 4.42 19.13 0 21.12 13.92 16.34 15.59 13.09 4.42"/><path class="cls-2" d="M46.52,11.39s-2.57-.09-3.9,0-5.18.49-6.77.72-3,.47-4.69.87S27,14,25.7,14.31,17,17.35,15.4,18a70,70,0,0,0-8.07,4.28c-1.45,1-4.28,3.44-4.86,4.62a4.05,4.05,0,0,0-.07,3.5,3.46,3.46,0,0,0,1.46,1.25,4.91,4.91,0,0,1-2.1-1.2,2.75,2.75,0,0,1-.89-2.28A5,5,0,0,1,1.58,26a9.36,9.36,0,0,1,2.53-2.59A34.28,34.28,0,0,1,9.8,19.81a62.52,62.52,0,0,1,9-3.85,45.79,45.79,0,0,1,7.8-2.3,64.59,64.59,0,0,1,6.93-1.38,67.75,67.75,0,0,1,7.81-.93C42.13,11.37,46.52,11.39,46.52,11.39Z" transform="translate(-0.72 -0.98)"/><polygon class="cls-1" points="16.86 17.12 21.29 15.47 25.92 48.04 16.86 17.12"/><path class="cls-1" d="M26,6.6" transform="translate(-0.72 -0.98)"/><polygon class="cls-1" points="19.13 0 25.18 5.62 24.99 5.82 19.18 0.34 19.13 0"/><path class="cls-1" d="M85.61,17.36a5.77,5.77,0,0,0,2.77.73c1.33,0,2.08-.63,2.08-1.56s-.58-1.38-2-1.9c-1.89-.67-3.1-1.69-3.1-3.33,0-1.88,1.57-3.29,4-3.29a6,6,0,0,1,2.75.57l-.5,1.68a5.11,5.11,0,0,0-2.29-.54c-1.33,0-1.89.71-1.89,1.38,0,.88.66,1.29,2.19,1.88,2,.76,2.94,1.75,2.94,3.4,0,1.84-1.38,3.44-4.34,3.44a6.61,6.61,0,0,1-3.1-.73Z" transform="translate(-0.72 -0.98)"/><path class="cls-1" d="M96.6,9.05a1.11,1.11,0,0,1-1.19,1.13,1.1,1.1,0,0,1-1.15-1.13,1.17,1.17,0,0,1,2.34,0ZM94.38,19.64V11.37h2.1v8.27Z" transform="translate(-0.72 -0.98)"/><path class="cls-1" d="M98.73,13.83c0-1,0-1.74-.06-2.46h1.82l.11,1.24h.05a3,3,0,0,1,2.63-1.43c1.45,0,2.94.93,2.94,3.55v4.91h-2.09V15c0-1.19-.44-2.1-1.58-2.1a1.75,1.75,0,0,0-1.63,1.23,2.19,2.19,0,0,0-.09.66v4.87h-2.1Z" transform="translate(-0.72 -0.98)"/><path class="cls-1" d="M116,11.37c0,.56-.07,1.24-.07,2.38v4.69c0,1.74-.35,3-1.23,3.75a4.74,4.74,0,0,1-3.2,1,6,6,0,0,1-2.88-.66l.45-1.59a4.92,4.92,0,0,0,2.42.63,2.2,2.2,0,0,0,2.38-2.5v-.7h0a2.78,2.78,0,0,1-2.41,1.21c-2,0-3.51-1.7-3.51-4,0-2.73,1.77-4.37,3.74-4.37a2.62,2.62,0,0,1,2.41,1.29h0l.08-1.1Zm-2.16,3.32a2,2,0,0,0-.07-.56,1.74,1.74,0,0,0-1.71-1.35c-1.16,0-2,1-2,2.7,0,1.41.71,2.55,2,2.55a1.74,1.74,0,0,0,1.69-1.27,2.48,2.48,0,0,0,.1-.73Z" transform="translate(-0.72 -0.98)"/><path class="cls-1" d="M118.2,7.58h2.09V19.64H118.2Z" transform="translate(-0.72 -0.98)"/><path class="cls-1" d="M124,16.09a2.25,2.25,0,0,0,2.55,2.15,6.35,6.35,0,0,0,2.29-.38l.31,1.44a7.51,7.51,0,0,1-2.89.52A3.92,3.92,0,0,1,122,15.63c0-2.29,1.38-4.45,4-4.45s3.57,2.21,3.57,4a4.47,4.47,0,0,1-.07.88Zm3.64-1.46a1.79,1.79,0,0,0-1.73-2,2,2,0,0,0-1.91,2Z" transform="translate(-0.72 -0.98)"/><path class="cls-1" d="M134.93,8.33a19.16,19.16,0,0,1,3.2-.23,5.13,5.13,0,0,1,3.38.94,3.23,3.23,0,0,1,1.12,2.53,3.5,3.5,0,0,1-1,2.6A6.05,6.05,0,0,1,137,15.32v4.32h-2.08ZM137,13.67a4,4,0,0,0,1,.1c1.56,0,2.52-.78,2.52-2.12s-.88-1.94-2.33-1.94a5.9,5.9,0,0,0-1.21.1Z" transform="translate(-0.72 -0.98)"/><path class="cls-1" d="M144.31,7.58h2.09V19.64h-2.09Z" transform="translate(-0.72 -0.98)"/><path class="cls-1" d="M153.33,19.64l-.14-.92h-.05a3,3,0,0,1-2.44,1.11,2.45,2.45,0,0,1-2.61-2.46c0-2.09,1.86-3.15,4.91-3.13V14.1c0-.54-.21-1.45-1.68-1.44a4.44,4.44,0,0,0-2.22.61l-.42-1.35a6,6,0,0,1,3-.74c2.65,0,3.41,1.68,3.41,3.49v3a12.49,12.49,0,0,0,.13,2Zm-.27-4.05c-1.48,0-2.89.29-2.89,1.55a1.11,1.11,0,0,0,1.19,1.2A1.7,1.7,0,0,0,153,17.19a1.8,1.8,0,0,0,.06-.45Z" transform="translate(-0.72 -0.98)"/><path class="cls-1" d="M159.61,9v2.37h2v1.56h-2v3.65c0,1,.27,1.53,1.07,1.53a3.23,3.23,0,0,0,.81-.09l0,1.59a4.62,4.62,0,0,1-1.52.21,2.43,2.43,0,0,1-1.8-.68,3.29,3.29,0,0,1-.65-2.32V12.93h-1.18V11.37h1.18V9.5Z" transform="translate(-0.72 -0.98)"/><path class="cls-1" d="M163.41,19.64V12.93h-1.12V11.37h1.12V11a3.9,3.9,0,0,1,1-2.83,3.17,3.17,0,0,1,2.17-.8,4.19,4.19,0,0,1,1.33.2l-.15,1.61a2.51,2.51,0,0,0-.89-.15c-1,0-1.38.87-1.38,1.89v.43h1.81v1.56h-1.8v6.71Z" transform="translate(-0.72 -0.98)"/><path class="cls-1" d="M176.28,15.43a4.1,4.1,0,0,1-4.25,4.4,4,4,0,0,1-4.15-4.26,4.09,4.09,0,0,1,4.29-4.39A4,4,0,0,1,176.28,15.43Zm-6.24.09c0,1.59.79,2.79,2.05,2.79s2-1.16,2-2.82c0-1.3-.58-2.79-2-2.79S170,14.14,170,15.52Z" transform="translate(-0.72 -0.98)"/><path class="cls-1" d="M178,14c0-1.11,0-1.92-.07-2.66h1.82l.07,1.57h.06a2.47,2.47,0,0,1,2.27-1.76,1.89,1.89,0,0,1,.49.05v2a2.71,2.71,0,0,0-.62-.06,1.84,1.84,0,0,0-1.87,1.58,3.16,3.16,0,0,0-.05.63v4.29H178Z" transform="translate(-0.72 -0.98)"/><path class="cls-1" d="M184.07,13.83c0-1,0-1.74-.07-2.46h1.79l.1,1.21h.05a2.83,2.83,0,0,1,2.54-1.4,2.38,2.38,0,0,1,2.3,1.53h0a3.38,3.38,0,0,1,1-1,2.83,2.83,0,0,1,1.68-.49c1.37,0,2.76.94,2.76,3.59v4.87h-2V15.07c0-1.38-.48-2.19-1.48-2.19A1.56,1.56,0,0,0,191.3,14a2.23,2.23,0,0,0-.11.7v5h-2V14.86c0-1.17-.47-2-1.43-2a1.64,1.64,0,0,0-1.5,1.18,2,2,0,0,0-.11.69v4.89h-2Z" transform="translate(-0.72 -0.98)"/><path class="cls-3" d="M51,38.61a5.77,5.77,0,0,0,2.77.73c1.33,0,2.08-.63,2.08-1.56s-.58-1.38-2-1.9c-1.89-.67-3.1-1.69-3.1-3.33,0-1.88,1.57-3.29,4.05-3.29a6,6,0,0,1,2.75.57L57,31.51A5.07,5.07,0,0,0,54.7,31c-1.33,0-1.89.71-1.89,1.38,0,.88.66,1.29,2.19,1.88,2,.76,3,1.75,3,3.4,0,1.84-1.39,3.44-4.35,3.44a6.61,6.61,0,0,1-3.1-.73Z" transform="translate(-0.72 -0.98)"/><path class="cls-3" d="M62,30.3a1.11,1.11,0,0,1-1.19,1.13,1.1,1.1,0,0,1-1.15-1.13,1.17,1.17,0,0,1,2.34,0ZM59.74,40.89V32.62h2.1v8.27Z" transform="translate(-0.72 -0.98)"/><path class="cls-3" d="M66.49,30.25v2.37h2v1.56h-2v3.65c0,1,.27,1.53,1.07,1.53a3.12,3.12,0,0,0,.81-.09l0,1.59a4.62,4.62,0,0,1-1.52.21,2.43,2.43,0,0,1-1.8-.68,3.29,3.29,0,0,1-.65-2.32V34.18H63.26V32.62h1.18V30.74Z" transform="translate(-0.72 -0.98)"/><path class="cls-3" d="M71.43,37.33A2.27,2.27,0,0,0,74,39.49a6.33,6.33,0,0,0,2.28-.38l.31,1.44a7.51,7.51,0,0,1-2.89.52,3.92,3.92,0,0,1-4.26-4.19c0-2.29,1.38-4.45,4-4.45s3.56,2.21,3.56,4a4.27,4.27,0,0,1-.07.87Zm3.64-1.45a1.78,1.78,0,0,0-1.72-2,2,2,0,0,0-1.92,2Z" transform="translate(-0.72 -0.98)"/><path class="cls-3" d="M82.32,29.58a19.2,19.2,0,0,1,3.21-.23,5.12,5.12,0,0,1,3.37.94A3.2,3.2,0,0,1,90,32.82a3.5,3.5,0,0,1-1,2.6,6.05,6.05,0,0,1-4.64,1.15v4.32H82.32Zm2.08,5.34a4.07,4.07,0,0,0,1,.1c1.57,0,2.52-.78,2.52-2.12S87.06,31,85.61,31a5.9,5.9,0,0,0-1.21.1Z" transform="translate(-0.72 -0.98)"/><path class="cls-3" d="M99.19,36.67a4.1,4.1,0,0,1-4.25,4.41,4,4,0,0,1-4.14-4.26,4.09,4.09,0,0,1,4.28-4.39A4,4,0,0,1,99.19,36.67ZM93,36.76c0,1.6.79,2.8,2.06,2.8s2-1.16,2-2.82c0-1.3-.58-2.79-2-2.79S93,35.38,93,36.76Z" transform="translate(-0.72 -0.98)"/><path class="cls-3" d="M102,32.62l.86,3.75c.2.88.38,1.78.54,2.68h0c.16-.89.42-1.81.66-2.66l1.09-3.77h1.69l1,3.67c.26,1,.49,1.87.66,2.76h0c.13-.89.32-1.8.55-2.76l.92-3.67h2l-2.59,8.27h-1.94l-1-3.37a24.47,24.47,0,0,1-.62-2.64h0a19.37,19.37,0,0,1-.63,2.64l-1,3.37h-2l-2.45-8.27Z" transform="translate(-0.72 -0.98)"/><path class="cls-3" d="M114.76,37.33a2.27,2.27,0,0,0,2.56,2.16,6.33,6.33,0,0,0,2.28-.38l.31,1.44a7.47,7.47,0,0,1-2.89.52,3.92,3.92,0,0,1-4.26-4.19c0-2.29,1.39-4.45,4-4.45s3.57,2.21,3.57,4a4.11,4.11,0,0,1-.08.87Zm3.64-1.45a1.78,1.78,0,0,0-1.72-2,2,2,0,0,0-1.92,2Z" transform="translate(-0.72 -0.98)"/><path class="cls-3" d="M122.06,35.28c0-1.11,0-1.92-.06-2.66h1.81l.07,1.57h.06a2.48,2.48,0,0,1,2.27-1.76,1.89,1.89,0,0,1,.49,0v2a2.68,2.68,0,0,0-.61-.06A1.84,1.84,0,0,0,124.21,36a3.16,3.16,0,0,0,0,.63v4.29h-2.1Z" transform="translate(-0.72 -0.98)"/><path class="cls-3" d="M141.38,36.22c-.07-1.48-.14-3.26-.13-4.82h-.05c-.38,1.4-.86,3-1.35,4.4l-1.68,5h-1.62L135,35.87c-.45-1.47-.86-3-1.16-4.47h0c-.05,1.5-.12,3.33-.21,4.89l-.25,4.6h-1.95l.76-11.45h2.75l1.49,4.6c.41,1.35.78,2.71,1.06,4h0c.3-1.25.7-2.65,1.14-4l1.59-4.59H143l.65,11.45h-2Z" transform="translate(-0.72 -0.98)"/><path class="cls-3" d="M150.42,40.89l-.15-.92h-.05a3,3,0,0,1-2.43,1.11,2.45,2.45,0,0,1-2.61-2.46c0-2.09,1.86-3.15,4.9-3.13v-.14c0-.54-.21-1.45-1.68-1.44a4.44,4.44,0,0,0-2.22.61l-.42-1.35a6,6,0,0,1,3-.74c2.66,0,3.42,1.68,3.42,3.49v3a12.63,12.63,0,0,0,.12,2Zm-.28-4c-1.48,0-2.89.29-2.89,1.55a1.1,1.1,0,0,0,1.19,1.19,1.69,1.69,0,0,0,1.64-1.14,1.46,1.46,0,0,0,.06-.46Z" transform="translate(-0.72 -0.98)"/><path class="cls-3" d="M154.4,35.08c0-1,0-1.75-.07-2.46h1.83l.1,1.24h.05A3,3,0,0,1,159,32.43c1.44,0,2.94.93,2.94,3.55v4.91h-2.1V36.22c0-1.18-.43-2.09-1.57-2.09a1.74,1.74,0,0,0-1.63,1.23,1.91,1.91,0,0,0-.1.66v4.87H154.4Z" transform="translate(-0.72 -0.98)"/><path class="cls-3" d="M168.78,40.89l-.15-.92h0a3,3,0,0,1-2.44,1.11,2.44,2.44,0,0,1-2.6-2.46c0-2.09,1.86-3.15,4.9-3.13v-.14c0-.54-.21-1.45-1.68-1.44a4.44,4.44,0,0,0-2.22.61l-.42-1.35a6,6,0,0,1,3-.74c2.66,0,3.42,1.68,3.42,3.49v3a12.63,12.63,0,0,0,.12,2Zm-.28-4c-1.48,0-2.89.29-2.89,1.55a1.1,1.1,0,0,0,1.19,1.19,1.69,1.69,0,0,0,1.64-1.14,1.46,1.46,0,0,0,.06-.46Z" transform="translate(-0.72 -0.98)"/><path class="cls-3" d="M180.32,32.62c0,.56-.07,1.24-.07,2.38v4.69c0,1.73-.35,3-1.23,3.75a4.74,4.74,0,0,1-3.2,1,6,6,0,0,1-2.88-.66l.45-1.59a5,5,0,0,0,2.42.63,2.2,2.2,0,0,0,2.38-2.5v-.7h0a2.78,2.78,0,0,1-2.41,1.21c-2.05,0-3.51-1.7-3.51-4,0-2.73,1.77-4.37,3.74-4.37a2.62,2.62,0,0,1,2.41,1.29h0l.08-1.1Zm-2.16,3.32a2,2,0,0,0-.07-.56A1.74,1.74,0,0,0,176.38,34c-1.16,0-2,1-2,2.7,0,1.41.71,2.55,2,2.55A1.74,1.74,0,0,0,178.06,38a2.52,2.52,0,0,0,.1-.73Z" transform="translate(-0.72 -0.98)"/><path class="cls-3" d="M184,37.33a2.27,2.27,0,0,0,2.56,2.16,6.33,6.33,0,0,0,2.28-.38l.31,1.44a7.51,7.51,0,0,1-2.89.52A3.92,3.92,0,0,1,182,36.88c0-2.29,1.38-4.45,4-4.45s3.57,2.21,3.57,4a4.27,4.27,0,0,1-.07.87Zm3.64-1.45a1.78,1.78,0,0,0-1.73-2,2,2,0,0,0-1.91,2Z" transform="translate(-0.72 -0.98)"/><path class="cls-3" d="M191.27,35.08c0-1,0-1.75-.07-2.46H193l.1,1.21h0a2.86,2.86,0,0,1,2.55-1.4A2.38,2.38,0,0,1,198,34h0a3.36,3.36,0,0,1,1-1,2.88,2.88,0,0,1,1.69-.49c1.36,0,2.76.94,2.76,3.59v4.87h-2V36.32c0-1.38-.48-2.19-1.48-2.19a1.56,1.56,0,0,0-1.45,1.1,2.23,2.23,0,0,0-.11.7v5h-2V36.11c0-1.17-.47-2-1.43-2a1.64,1.64,0,0,0-1.5,1.18,2,2,0,0,0-.11.69v4.89h-2Z" transform="translate(-0.72 -0.98)"/><path class="cls-3" d="M207.16,37.33a2.26,2.26,0,0,0,2.55,2.16,6.35,6.35,0,0,0,2.29-.38l.31,1.44a7.51,7.51,0,0,1-2.89.52,3.92,3.92,0,0,1-4.26-4.19c0-2.29,1.38-4.45,4-4.45s3.57,2.21,3.57,4a4.11,4.11,0,0,1-.08.87Zm3.64-1.45a1.79,1.79,0,0,0-1.73-2,2,2,0,0,0-1.91,2Z" transform="translate(-0.72 -0.98)"/><path class="cls-3" d="M214.46,35.08c0-1,0-1.75-.07-2.46h1.83l.1,1.24h.05A3,3,0,0,1,219,32.43c1.44,0,2.94.93,2.94,3.55v4.91h-2.09V36.22c0-1.18-.44-2.09-1.58-2.09a1.74,1.74,0,0,0-1.63,1.23,1.91,1.91,0,0,0-.1.66v4.87h-2.09Z" transform="translate(-0.72 -0.98)"/><path class="cls-3" d="M226.49,30.25v2.37h2v1.56h-2v3.65c0,1,.27,1.53,1.07,1.53a3.12,3.12,0,0,0,.81-.09l0,1.59a4.73,4.73,0,0,1-1.53.21,2.43,2.43,0,0,1-1.8-.68,3.33,3.33,0,0,1-.65-2.32V34.18h-1.18V32.62h1.18V30.74Z" transform="translate(-0.72 -0.98)"/></svg>