<svg id="Layer_1" data-name="Layer 1" xmlns="http://www.w3.org/2000/svg" viewBox="0 0 227.27 48.04"><defs><style>.cls-1{fill:#015097;}.cls-2,.cls-3{fill:gray;}.cls-2{stroke:gray;stroke-miterlimit:10;stroke-width:0.25px;}</style></defs><title>logo-tr</title><polygon class="cls-1" points="13.09 4.42 19.13 0 21.12 13.92 16.34 15.59 13.09 4.42"/><path class="cls-2" d="M46.52,11.39s-2.57-.09-3.9,0-5.18.49-6.77.72-3,.47-4.69.87S27,14,25.7,14.31,17,17.35,15.4,18a70,70,0,0,0-8.07,4.28c-1.45,1-4.28,3.44-4.86,4.62a4.05,4.05,0,0,0-.07,3.5,3.46,3.46,0,0,0,1.46,1.25,4.91,4.91,0,0,1-2.1-1.2,2.75,2.75,0,0,1-.89-2.28A5,5,0,0,1,1.58,26a9.36,9.36,0,0,1,2.53-2.59A34.28,34.28,0,0,1,9.8,19.81a62.52,62.52,0,0,1,9-3.85,45.79,45.79,0,0,1,7.8-2.3,64.59,64.59,0,0,1,6.93-1.38,67.75,67.75,0,0,1,7.81-.93C42.13,11.37,46.52,11.39,46.52,11.39Z" transform="translate(-0.72 -0.98)"/><polygon class="cls-1" points="16.86 17.12 21.29 15.47 25.92 48.04 16.86 17.12"/><path class="cls-1" d="M26,6.6" transform="translate(-0.72 -0.98)"/><polygon class="cls-1" points="19.13 0 25.18 5.62 24.99 5.82 19.18 0.34 19.13 0"/><path class="cls-1" d="M74.67,17.23a6.21,6.21,0,0,0,2.94.77c1.41,0,2.2-.66,2.2-1.66s-.61-1.45-2.15-2c-2-.71-3.28-1.79-3.28-3.53,0-2,1.66-3.48,4.29-3.48a6.43,6.43,0,0,1,2.91.6l-.53,1.79a5.22,5.22,0,0,0-2.42-.58c-1.41,0-2,.75-2,1.46,0,.93.71,1.37,2.32,2,2.11.81,3.13,1.86,3.13,3.61,0,1.95-1.47,3.64-4.61,3.64a7,7,0,0,1-3.28-.77Z" transform="translate(-0.72 -0.98)"/><path class="cls-1" d="M86.31,8.43a1.24,1.24,0,1,1-1.23-1.2A1.16,1.16,0,0,1,86.31,8.43ZM84,19.64V10.88h2.21v8.76Z" transform="translate(-0.72 -0.98)"/><path class="cls-1" d="M88.57,13.49c0-1,0-1.85-.07-2.61h1.94l.11,1.31h0a3.19,3.19,0,0,1,2.79-1.51c1.53,0,3.12,1,3.12,3.76v5.2H94.29V14.7c0-1.26-.46-2.22-1.67-2.22a1.87,1.87,0,0,0-1.73,1.3,2.43,2.43,0,0,0-.1.71v5.15H88.57Z" transform="translate(-0.72 -0.98)"/><path class="cls-1" d="M106.88,10.88c0,.59-.08,1.32-.08,2.52v5c0,1.84-.37,3.14-1.29,4a5,5,0,0,1-3.39,1.07,6.22,6.22,0,0,1-3.05-.7L99.54,21a5.17,5.17,0,0,0,2.56.68,2.33,2.33,0,0,0,2.52-2.65V18.3h0A2.94,2.94,0,0,1,102,19.59c-2.17,0-3.72-1.8-3.72-4.28,0-2.89,1.87-4.63,4-4.63a2.76,2.76,0,0,1,2.55,1.37h0l.08-1.17Zm-2.29,3.52a2.25,2.25,0,0,0-.07-.6,1.85,1.85,0,0,0-1.81-1.43c-1.23,0-2.15,1.08-2.15,2.87,0,1.49.75,2.7,2.14,2.7a1.87,1.87,0,0,0,1.79-1.35,2.8,2.8,0,0,0,.1-.77Z" transform="translate(-0.72 -0.98)"/><path class="cls-1" d="M109.18,6.86h2.22V19.64h-2.22Z" transform="translate(-0.72 -0.98)"/><path class="cls-1" d="M115.37,15.88c.06,1.58,1.29,2.28,2.71,2.28a6.59,6.59,0,0,0,2.42-.41l.32,1.53a7.9,7.9,0,0,1-3.06.55,4.14,4.14,0,0,1-4.51-4.44c0-2.42,1.46-4.71,4.28-4.71s3.78,2.34,3.78,4.26a4.16,4.16,0,0,1-.08.94Zm3.85-1.55a1.89,1.89,0,0,0-1.82-2.14,2.16,2.16,0,0,0-2,2.14Z" transform="translate(-0.72 -0.98)"/><path class="cls-1" d="M126.9,7.66a20.91,20.91,0,0,1,3.39-.25,5.42,5.42,0,0,1,3.58,1,3.4,3.4,0,0,1,1.18,2.68,3.72,3.72,0,0,1-1,2.75,5.33,5.33,0,0,1-3.84,1.31,5,5,0,0,1-1.08-.09v4.58h-2.2Zm2.2,5.66a4.08,4.08,0,0,0,1.08.1c1.66,0,2.67-.82,2.67-2.25s-.93-2.05-2.47-2.05a6.6,6.6,0,0,0-1.28.1Z" transform="translate(-0.72 -0.98)"/><path class="cls-1" d="M136.83,6.86h2.22V19.64h-2.22Z" transform="translate(-0.72 -0.98)"/><path class="cls-1" d="M146.39,19.64l-.15-1h-.06a3.2,3.2,0,0,1-2.58,1.17,2.59,2.59,0,0,1-2.76-2.6c0-2.22,2-3.34,5.2-3.32v-.15c0-.57-.23-1.53-1.78-1.53a4.66,4.66,0,0,0-2.36.66l-.44-1.44a6.37,6.37,0,0,1,3.18-.78c2.81,0,3.61,1.77,3.61,3.7v3.15a12.66,12.66,0,0,0,.14,2.11Zm-.3-4.29c-1.56,0-3.06.31-3.06,1.65a1.18,1.18,0,0,0,1.27,1.26A1.8,1.8,0,0,0,146,17a1.54,1.54,0,0,0,.06-.48Z" transform="translate(-0.72 -0.98)"/><path class="cls-1" d="M153,8.37v2.51h2.11v1.65H153V16.4c0,1.07.28,1.62,1.13,1.62a3.42,3.42,0,0,0,.86-.1l0,1.69a5.15,5.15,0,0,1-1.61.22,2.55,2.55,0,0,1-1.91-.72,3.46,3.46,0,0,1-.69-2.46V12.53h-1.25V10.88h1.25v-2Z" transform="translate(-0.72 -0.98)"/><path class="cls-1" d="M157.05,19.64V12.53h-1.18V10.88h1.18v-.37a4.1,4.1,0,0,1,1.07-3,3.31,3.31,0,0,1,2.29-.85,4.34,4.34,0,0,1,1.41.22l-.15,1.7a2.87,2.87,0,0,0-.95-.16c-1.1,0-1.46.93-1.46,2v.46h1.91v1.65h-1.9v7.11Z" transform="translate(-0.72 -0.98)"/><path class="cls-1" d="M170.68,15.18a4.34,4.34,0,0,1-4.5,4.66,4.24,4.24,0,0,1-4.39-4.51,4.34,4.34,0,0,1,4.54-4.65A4.2,4.2,0,0,1,170.68,15.18Zm-6.61.09c0,1.69.84,3,2.18,3s2.15-1.22,2.15-3c0-1.38-.61-3-2.13-3S164.07,13.81,164.07,15.27Z" transform="translate(-0.72 -0.98)"/><path class="cls-1" d="M172.5,13.7c0-1.18,0-2-.07-2.82h1.92l.08,1.66h.07a2.61,2.61,0,0,1,2.4-1.86,2.14,2.14,0,0,1,.52.05v2.09a3,3,0,0,0-.65-.07,2,2,0,0,0-2,1.68,3.48,3.48,0,0,0-.06.67v4.54H172.5Z" transform="translate(-0.72 -0.98)"/><path class="cls-1" d="M178.93,13.49c0-1,0-1.85-.07-2.61h1.89l.11,1.29h0a3,3,0,0,1,2.7-1.49A2.52,2.52,0,0,1,186,12.3h0a3.55,3.55,0,0,1,1.08-1.1,3,3,0,0,1,1.78-.52c1.45,0,2.92,1,2.92,3.8v5.16h-2.16V14.8c0-1.47-.51-2.32-1.56-2.32a1.65,1.65,0,0,0-1.54,1.16,2.6,2.6,0,0,0-.12.74v5.26h-2.16V14.58c0-1.24-.49-2.1-1.51-2.1a1.77,1.77,0,0,0-1.6,1.25,2.48,2.48,0,0,0-.11.73v5.18h-2.16Z" transform="translate(-0.72 -0.98)"/><path class="cls-3" d="M40,38.48a6.14,6.14,0,0,0,2.93.77c1.41,0,2.21-.67,2.21-1.66s-.62-1.45-2.15-2c-2-.71-3.29-1.79-3.29-3.53,0-2,1.66-3.48,4.3-3.48a6.42,6.42,0,0,1,2.9.6L46.41,31A5.19,5.19,0,0,0,44,30.38c-1.41,0-2,.75-2,1.46,0,.93.7,1.37,2.32,2,2.11.81,3.12,1.86,3.12,3.61,0,2-1.47,3.64-4.6,3.64a7,7,0,0,1-3.28-.77Z" transform="translate(-0.72 -0.98)"/><path class="cls-3" d="M51.68,29.67a1.18,1.18,0,0,1-1.27,1.2,1.2,1.2,0,1,1,1.27-1.2ZM49.33,40.89V32.13h2.22v8.76Z" transform="translate(-0.72 -0.98)"/><path class="cls-3" d="M56.47,29.62v2.51h2.11v1.65H56.47v3.87c0,1.07.29,1.62,1.14,1.62a3.55,3.55,0,0,0,.86-.1l0,1.69a5.11,5.11,0,0,1-1.61.22A2.55,2.55,0,0,1,55,40.36a3.51,3.51,0,0,1-.69-2.46V33.78H53.05V32.13H54.3v-2Z" transform="translate(-0.72 -0.98)"/><path class="cls-3" d="M61.71,37.12c0,1.59,1.28,2.29,2.7,2.29A6.59,6.59,0,0,0,66.83,39l.33,1.53a8.09,8.09,0,0,1-3.06.55,4.16,4.16,0,0,1-4.52-4.44c0-2.42,1.47-4.71,4.29-4.71s3.78,2.34,3.78,4.26a4.65,4.65,0,0,1-.08.93Zm3.85-1.54a1.89,1.89,0,0,0-1.83-2.14,2.17,2.17,0,0,0-2,2.14Z" transform="translate(-0.72 -0.98)"/><path class="cls-3" d="M73.23,28.91a20,20,0,0,1,3.4-.25,5.38,5.38,0,0,1,3.57,1,3.38,3.38,0,0,1,1.19,2.68,3.72,3.72,0,0,1-1,2.75,5.36,5.36,0,0,1-3.84,1.31,5,5,0,0,1-1.09-.09v4.58h-2.2Zm2.2,5.66a4.7,4.7,0,0,0,1.09.1c1.66,0,2.67-.82,2.67-2.25s-.94-2.05-2.47-2.05a6.81,6.81,0,0,0-1.29.1Z" transform="translate(-0.72 -0.98)"/><path class="cls-3" d="M91.1,36.42a4.34,4.34,0,0,1-4.5,4.67,4.24,4.24,0,0,1-4.39-4.51,4.33,4.33,0,0,1,4.54-4.65A4.21,4.21,0,0,1,91.1,36.42Zm-6.61.1c0,1.69.84,3,2.18,3s2.15-1.23,2.15-3c0-1.38-.61-3-2.14-3S84.49,35.06,84.49,36.52Z" transform="translate(-0.72 -0.98)"/><path class="cls-3" d="M94.1,32.13l.91,4c.21.94.41,1.89.57,2.84h0c.18-.94.46-1.92.71-2.82l1.15-4h1.79l1.1,3.89c.27,1,.51,2,.7,2.92h0c.14-.94.34-1.9.58-2.92l1-3.89h2.18l-2.75,8.76H100l-1-3.57a24.56,24.56,0,0,1-.66-2.8h0a23.13,23.13,0,0,1-.67,2.8L96.5,40.89H94.43l-2.59-8.76Z" transform="translate(-0.72 -0.98)"/><path class="cls-3" d="M107.59,37.12a2.39,2.39,0,0,0,2.7,2.29,6.59,6.59,0,0,0,2.42-.41l.33,1.53a8.09,8.09,0,0,1-3.06.55,4.16,4.16,0,0,1-4.52-4.44c0-2.42,1.47-4.71,4.29-4.71s3.78,2.34,3.78,4.26a4.65,4.65,0,0,1-.08.93Zm3.85-1.54a1.89,1.89,0,0,0-1.83-2.14,2.17,2.17,0,0,0-2,2.14Z" transform="translate(-0.72 -0.98)"/><path class="cls-3" d="M115.31,35c0-1.18,0-2-.07-2.82h1.92l.08,1.66h.07a2.61,2.61,0,0,1,2.4-1.86,2,2,0,0,1,.51.05v2.09a2.84,2.84,0,0,0-.64-.07,2,2,0,0,0-2,1.68,3.48,3.48,0,0,0-.06.67v4.54h-2.22Z" transform="translate(-0.72 -0.98)"/><path class="cls-3" d="M135.77,35.94c-.07-1.56-.15-3.45-.14-5.1h0c-.4,1.49-.91,3.12-1.43,4.66l-1.78,5.25h-1.71l-1.61-5.18c-.47-1.56-.91-3.21-1.23-4.73h0c0,1.59-.12,3.53-.21,5.18l-.27,4.87h-2.07L126,28.76H129l1.58,4.87c.44,1.44.83,2.88,1.12,4.23h0c.33-1.33.74-2.81,1.21-4.24l1.69-4.86h2.87l.7,12.13H136Z" transform="translate(-0.72 -0.98)"/><path class="cls-3" d="M145.34,40.89l-.15-1h-.06a3.2,3.2,0,0,1-2.58,1.17,2.59,2.59,0,0,1-2.76-2.61c0-2.21,2-3.33,5.2-3.31V35c0-.58-.23-1.53-1.78-1.53a4.66,4.66,0,0,0-2.36.66l-.44-1.44a6.37,6.37,0,0,1,3.18-.78c2.81,0,3.61,1.77,3.61,3.7v3.15a12.66,12.66,0,0,0,.14,2.11ZM145,36.6c-1.56,0-3.06.31-3.06,1.64a1.18,1.18,0,0,0,1.27,1.27A1.8,1.8,0,0,0,145,38.29a1.54,1.54,0,0,0,.06-.48Z" transform="translate(-0.72 -0.98)"/><path class="cls-3" d="M149.55,34.74c0-1,0-1.85-.07-2.61h1.94l.1,1.31h.06a3.17,3.17,0,0,1,2.79-1.51c1.53,0,3.12,1,3.12,3.76v5.2h-2.22V36c0-1.26-.46-2.22-1.68-2.22a1.83,1.83,0,0,0-1.72,1.3,2.13,2.13,0,0,0-.1.71v5.15h-2.22Z" transform="translate(-0.72 -0.98)"/><path class="cls-3" d="M164.78,40.89l-.15-1h-.06A3.2,3.2,0,0,1,162,41.09a2.59,2.59,0,0,1-2.76-2.61c0-2.21,2-3.33,5.19-3.31V35c0-.58-.22-1.53-1.77-1.53a4.66,4.66,0,0,0-2.36.66l-.44-1.44a6.37,6.37,0,0,1,3.18-.78c2.81,0,3.61,1.77,3.61,3.7v3.15a12.66,12.66,0,0,0,.14,2.11Zm-.3-4.29c-1.56,0-3.06.31-3.06,1.64a1.18,1.18,0,0,0,1.27,1.27,1.8,1.8,0,0,0,1.73-1.22,1.54,1.54,0,0,0,.06-.48Z" transform="translate(-0.72 -0.98)"/><path class="cls-3" d="M177,32.13c0,.59-.08,1.32-.08,2.52v5c0,1.84-.37,3.14-1.29,4a5.08,5.08,0,0,1-3.39,1.07,6.22,6.22,0,0,1-3.05-.7l.47-1.69a5.17,5.17,0,0,0,2.56.68,2.33,2.33,0,0,0,2.52-2.65v-.75h0a2.93,2.93,0,0,1-2.55,1.29c-2.17,0-3.72-1.81-3.72-4.28,0-2.89,1.87-4.63,4-4.63A2.77,2.77,0,0,1,175,33.29h0l.08-1.16Zm-2.29,3.51a2.22,2.22,0,0,0-.07-.59,1.85,1.85,0,0,0-1.81-1.43c-1.23,0-2.15,1.08-2.15,2.87,0,1.49.75,2.7,2.14,2.7a1.87,1.87,0,0,0,1.79-1.35,2.88,2.88,0,0,0,.1-.78Z" transform="translate(-0.72 -0.98)"/><path class="cls-3" d="M180.86,37.12c.06,1.59,1.29,2.29,2.71,2.29A6.59,6.59,0,0,0,186,39l.33,1.53a8.09,8.09,0,0,1-3.06.55,4.16,4.16,0,0,1-4.52-4.44c0-2.42,1.47-4.71,4.29-4.71s3.78,2.34,3.78,4.26a4.65,4.65,0,0,1-.08.93Zm3.86-1.54a1.89,1.89,0,0,0-1.83-2.14,2.17,2.17,0,0,0-2,2.14Z" transform="translate(-0.72 -0.98)"/><path class="cls-3" d="M188.59,34.74c0-1,0-1.85-.07-2.61h1.89l.11,1.29h0a3,3,0,0,1,2.7-1.49,2.52,2.52,0,0,1,2.43,1.62h0a3.55,3.55,0,0,1,1.08-1.1,3,3,0,0,1,1.78-.52c1.45,0,2.92,1,2.92,3.8v5.16h-2.16V36c0-1.46-.51-2.31-1.56-2.31a1.65,1.65,0,0,0-1.54,1.16,2.6,2.6,0,0,0-.12.74v5.26H194V35.83c0-1.24-.49-2.1-1.51-2.1a1.77,1.77,0,0,0-1.6,1.25,2.48,2.48,0,0,0-.11.73v5.18h-2.16Z" transform="translate(-0.72 -0.98)"/><path class="cls-3" d="M205.42,37.12c.06,1.59,1.28,2.29,2.7,2.29a6.59,6.59,0,0,0,2.42-.41l.33,1.53a8.09,8.09,0,0,1-3.06.55,4.16,4.16,0,0,1-4.52-4.44c0-2.42,1.47-4.71,4.29-4.71s3.78,2.34,3.78,4.26a4.65,4.65,0,0,1-.08.93Zm3.85-1.54a1.89,1.89,0,0,0-1.83-2.14,2.17,2.17,0,0,0-2,2.14Z" transform="translate(-0.72 -0.98)"/><path class="cls-3" d="M213.14,34.74c0-1,0-1.85-.07-2.61H215l.11,1.31h0A3.19,3.19,0,0,1,218,31.93c1.53,0,3.12,1,3.12,3.76v5.2h-2.22V36c0-1.26-.46-2.22-1.67-2.22a1.85,1.85,0,0,0-1.73,1.3,2.43,2.43,0,0,0-.1.71v5.15h-2.22Z" transform="translate(-0.72 -0.98)"/><path class="cls-3" d="M225.89,29.62v2.51H228v1.65h-2.1v3.87c0,1.07.28,1.62,1.13,1.62a3.48,3.48,0,0,0,.86-.1l0,1.69a5.11,5.11,0,0,1-1.61.22,2.54,2.54,0,0,1-1.9-.72,3.46,3.46,0,0,1-.7-2.46V33.78h-1.25V32.13h1.25v-2Z" transform="translate(-0.72 -0.98)"/></svg>