<svg id="Layer_1" data-name="Layer 1" xmlns="http://www.w3.org/2000/svg" viewBox="0 0 263.4 263.4"><defs><style>.cls-1{fill:#007bff;}.cls-2{fill:#0576db;}.cls-3{fill:#fff;}</style></defs><title>rectifier</title><circle class="cls-1" cx="131.7" cy="131.7" r="131.7"/><path class="cls-2" d="M273.14,150.32l-59.9-75.48-7.94,2.8,5.1,91.23-5.1,38.81L81,210.74l-7.58,1.42,62.47,61.14c1.92.08,3.86.13,5.8.13A131.69,131.69,0,0,0,273.14,150.32Z" transform="translate(-10.03 -10.03)"/><path class="cls-3" d="M197,66.47H86.47a20,20,0,0,0-20,20V197a20,20,0,0,0,20,20H197a20,20,0,0,0,20-20V86.47A20,20,0,0,0,197,66.47Zm-110.52,16H197a4.06,4.06,0,0,1,4,4v47.26H82.47V86.47A4.06,4.06,0,0,1,86.47,82.47ZM197,201H86.47a4.06,4.06,0,0,1-4-4V149.73H201V197A4.05,4.05,0,0,1,197,201Z" transform="translate(-10.03 -10.03)"/><path class="cls-3" d="M162.64,107.25h-4a2.29,2.29,0,0,0-2.29,2.29v1.93a6,6,0,0,1-5.11,6,5.88,5.88,0,0,1-6.66-5.83v-7.47a14.68,14.68,0,0,0-13.75-14.87,14.48,14.48,0,0,0-15.21,14.46V106a2.3,2.3,0,0,0,2.29,2.29h4a2.3,2.3,0,0,0,2.3-2.29V104a6,6,0,0,1,5.1-6A5.81,5.81,0,0,1,134,99.39a5.9,5.9,0,0,1,2,4.42v7.47a14.68,14.68,0,0,0,13.75,14.87l.74,0a14.48,14.48,0,0,0,14.47-14.48v-2.15A2.3,2.3,0,0,0,162.64,107.25Z" transform="translate(-10.03 -10.03)"/><rect class="cls-3" x="107.04" y="152.88" width="49.32" height="8" rx="1.5"/><rect class="cls-3" x="107.04" y="168.44" width="20.66" height="8" rx="1.5"/><rect class="cls-3" x="135.7" y="168.44" width="20.66" height="8" rx="1.5"/></svg>